<svg width="135" height="81" viewBox="0 0 135 81" fill="none" xmlns="http://www.w3.org/2000/svg">
<path d="M126.43 70.31L106.68 35.15H106.67L86.92 0H47.42L67.17 35.15H27.66L7.9 70.31H0V80.36H54.82V70.31H47.42L67.17 35.16L86.92 70.31H79.52V80.36H134.34V70.31H126.43Z" fill="#65BB38"/>
<path d="M27.6599 35.15H67.1699L47.4199 70.31L27.6599 35.15Z" fill="#549E2E"/>
<path d="M47.4199 0L67.1699 35.16H106.68L86.9199 0H47.4199Z" fill="#65BB38"/>
<path d="M126.43 70.34L106.68 35.1801H67.1699L86.9199 70.34H79.5199V80.39H134.34V70.34H126.43Z" fill="#7AC454"/>
<path d="M47.42 70.31L27.66 35.15L7.9 70.31H0V80.36H54.82V70.31H47.42Z" fill="#65BB38"/>
</svg>
