<svg version="1.1" id="Layer_1" xmlns:x="ns_extend;" xmlns:i="ns_ai;" xmlns:graph="ns_graphs;" xmlns="http://www.w3.org/2000/svg" xmlns:xlink="http://www.w3.org/1999/xlink" x="0px" y="0px" viewBox="0 0 100.1 50" style="enable-background:new 0 0 100.1 50;" xml:space="preserve">
 <style type="text/css">
  .st0{fill:#EE6123;}
 </style>
 <metadata>
  <sfw xmlns="ns_sfw;">
   <slices>
   </slices>
   <sliceSourceBounds bottomLeftOrigin="true" height="50" width="100.1" x="-0.1" y="30">
   </sliceSourceBounds>
  </sfw>
 </metadata>
 <g>
  <path class="st0" d="M52.1,33.8c-5,0-7.8-3-7.8-6.7c0-1.5,0.1-12.7,0.1-12.7c-1.6,0-2.5-0.9-2.5-1.9c0-1.2,1-2.1,2.2-2.1
		c0,0,0.1,0,0.1,0c0,0,0-3.7,0-5.3c0-1.8,1.4-3.2,3.1-3.2c0,0,0,0,0,0c1.8,0,3.2,1.5,3.2,3.2c0,1.3-0.1,3.2-0.1,5.2h3.3
		c1.7,0,2.4,0.9,2.4,2.2c0,1.1-0.9,2-2,2c0,0-0.1,0-0.1,0c-1.1,0-3.6,0-3.6,0c-0.1,3.6-0.2,7.9-0.2,11.3c0,1.5,1.2,2.7,2.7,2.7
		c0.1,0,0.2,0,0.3,0c4.8,0,6.1-4.8,6.1-13.9c0-1.2,1-2.2,2.2-2.2c1.2,0,2.2,1,2.2,2.2C63.6,26.5,60.6,33.8,52.1,33.8z">
  </path>
  <path class="st0" d="M72.4,14.8c1-0.7,2.1-1.2,3.2-1.4c1.2,0,1,0.2,1,1.4c0,12.9-2.3,19-10.7,19c-3.6,0-7-2.7-7-6
		c0-1.3,0.2-3.9,0.2-5.2C59.2,10.2,59,7.6,59,3.9c0-1.8,1.4-3.3,3.2-3.3c1.7,0,3.1,1.4,3.1,3.1c0,0,0,0.1,0,0.1
		c0,3.7-0.4,9-0.5,22.8c0,1.2,0.6,2,2.1,2C71.5,28.4,72.3,22.5,72.4,14.8z">
  </path>
  <path class="st0" d="M87.6,31.6c0,0-1.8,2.3-6.2,2.2c-5.9-0.1-8.7-4.8-8.9-9.7c-0.2-3.7-0.1-6.2-0.1-8.6c-0.1-1.7,1.1-3.1,2.8-3.2
		c0,0,0.1,0,0.1,0c1.8,0,2.8,1.5,2.8,3.2c0,2.4-0.2,4.5-0.2,7c0,3.1,1,5.9,3.6,5.9c2.6,0,5.2-1.1,5.3-6.4c0-2.6-0.1-4.1-0.1-6.5
		c0-1.7,1.3-3,3-3c1.7,0,3,1.3,3,3c0,2.4-0.2,4.7-0.2,8.4c0,0-0.1,7.4,0.2,9c1.4-0.6,2.5-1.7,3.2-3c0.6-1,2-1.4,3.1-0.9
		c1,0.7,1.3,2,0.7,3.1c-1.2,2.6-2.7,4.2-6.6,5.5c0,4.4-0.3,11-8.5,12.2c-7,1-10.2-3.1-10.2-6.5c0-5.5,5.5-7.1,13.4-9L87.6,31.6z
		 M88.4,38.7c-4,0.9-9,2.1-8.9,4.6c0.1,2.3,2.4,2.7,4.4,2.3C88,44.7,88.5,42.3,88.4,38.7z">
  </path>
  <path class="st0" d="M31.4,27.8c0-1.5-0.2-13.7-0.2-13.7c-0.2-1.6,1-3.1,2.6-3.2c1.6-0.2,3.1,1,3.2,2.6c0,0.2,0,0.5,0,0.7
		c-0.2,5.7-0.3,9.4-0.3,11.4c0,1.1,0.6,2.9,2.5,2.9c4.3,0,5.2-4,5.2-13.6c0.1-1.2,1.2-2.2,2.4-2.2c1.2,0,2.2,0.9,2.2,2.1
		c0,0,0,0,0,0c0,14.5-2.5,18.9-10.7,18.9C34.9,33.8,31.4,31.7,31.4,27.8z">
  </path>
  <path class="st0" d="M33.4,12c-1.2,0-1.3,0.3-2,1.5c0,5.3-0.6,11.2-7.4,14.4c4.6-8.4,0.1-17.2-7-17.2c-2.5-0.1-4.9,0.8-6.8,2.3
		c0-2.6,0.1-7.2,0.1-7.2c0-3.2-1.1-5.7-5-5.8C3-0.1,1,1.2,0.2,3.4C-0.2,4.1,0,5.1,0.7,5.6C1.5,5.9,2.4,5.7,2.9,5
		c0.3-0.4,0.5-0.5,0.8-0.5c0.5,0.1,0.5,0.8,0.5,1.3s0.4,4.9,0.2,19c0,3.9,3.1,8.9,10.4,8.9c13.5,0,21.5-6.4,21.5-20.3
		C36.3,12.4,34.6,12,33.4,12z M14.8,28.4c-2.7,0-4.5-1-4.6-3.4c0-0.7,0-1.5,0-2.2c0.3-3.5,2.5-5.7,4.9-6.2c3-0.6,5,0.8,5,4.7
		C20,23.8,19.3,28.3,14.8,28.4z">
  </path>
  <ellipse class="st0" cx="34.2" cy="5.1" rx="3.2" ry="3.2">
  </ellipse>
 </g>
</svg>