<svg xmlns="http://www.w3.org/2000/svg"  viewBox="0 0 48 48" width="16px" height="16px" baseProfile="basic"><path d="M45,23c0-3.325-0.091-6.167-0.271-8.447c-0.251-3.186-2.753-5.674-5.95-5.917C34.975,8.346,29.323,8,24,8	S13.025,8.346,9.221,8.636c-3.197,0.243-5.7,2.731-5.951,5.917C3.091,16.833,3,19.675,3,23c0,0.314,0,1.625,0,2	c0,4.009,0.131,7.55,0.39,10.527c0.275,3.154,2.772,5.623,5.938,5.87C12.854,41.672,18.26,42,24,42s11.146-0.328,14.671-0.604	c3.167-0.247,5.664-2.715,5.939-5.87C44.869,32.55,45,29.009,45,25C45,24.625,45,23.315,45,23z"/><path fill="#fff" d="M43.732,14.631c-0.211-2.678-2.351-4.795-5.029-4.999C34.956,9.347,29.304,9,24,9	S13.044,9.347,9.297,9.633c-2.678,0.204-4.818,2.321-5.029,4.999C4.115,16.565,4,19.263,4,23c0,4.66,0.18,8.064,0.386,10.44	c0.232,2.66,2.358,4.752,5.02,4.96C12.976,38.678,18.327,39,24,39s11.024-0.322,14.593-0.6c2.662-0.208,4.789-2.299,5.02-4.96	C43.82,31.064,44,27.66,44,23C44,19.263,43.885,16.565,43.732,14.631z"/><path d="M24,40c-5.74,0-11.146-0.328-14.671-0.604c-3.166-0.247-5.664-2.715-5.938-5.87C3.131,30.55,3,27.009,3,23	c0-3.325,0.091-6.167,0.271-8.447c0.251-3.186,2.753-5.674,5.951-5.917C13.025,8.346,18.677,8,24,8s10.975,0.346,14.779,0.636	c3.197,0.243,5.699,2.731,5.95,5.917C44.909,16.833,45,19.675,45,23c0,4.009-0.131,7.55-0.39,10.526	c-0.275,3.155-2.772,5.623-5.939,5.87C35.146,39.672,29.74,40,24,40z M24,10c-5.26,0-10.857,0.343-14.627,0.63	c-2.208,0.168-3.936,1.884-4.108,4.08C5.089,16.938,5,19.727,5,23c0,3.951,0.129,7.435,0.382,10.354	c0.19,2.175,1.915,3.878,4.102,4.049C12.974,37.675,18.325,38,24,38s11.026-0.325,14.515-0.598c2.188-0.17,3.913-1.874,4.103-4.049	C42.871,30.435,43,26.951,43,23c0-3.272-0.089-6.062-0.265-8.29l0,0c-0.173-2.196-1.9-3.912-4.108-4.08	C34.857,10.343,29.26,10,24,10z"/><path d="M30.785,25.052l-9.944,5.863C20.027,31.394,19,30.808,19,29.863V18.137c0-0.945,1.027-1.531,1.841-1.052l9.944,5.863 C31.586,23.421,31.586,24.579,30.785,25.052z"/></svg>